<svg width="17" height="19" viewBox="0 0 17 19" fill="none" xmlns="http://www.w3.org/2000/svg">
<path d="M8.39844 2.11719C4.88281 2.74219 2.22656 5.82813 2.22656 9.5C2.22656 13.6797 5.54688 17 9.6875 17C11.0156 17 12.2656 16.6484 13.3594 16.0625C9.21875 15.7109 5.9375 12.1953 5.9375 7.9375C5.9375 5.67188 6.875 3.60156 8.39844 2.11719ZM10.9766 1.29688C11.0547 1.57031 10.9375 1.84375 10.7031 1.96094C8.59375 3.13281 7.1875 5.39844 7.1875 7.9375C7.1875 11.7656 10.2734 14.8125 14.0625 14.8125C14.4531 14.8125 14.8438 14.8125 15.2344 14.7344C15.5078 14.6953 15.7813 14.8125 15.8984 15.0469C16.0156 15.3203 15.9766 15.5938 15.7813 15.7891C14.2188 17.3125 12.0703 18.25 9.6875 18.25C4.88281 18.25 0.976563 14.3438 0.976563 9.5C0.976563 4.69531 4.88281 0.750001 9.6875 0.750001C9.92188 0.750001 10.1953 0.789063 10.4297 0.789063C10.7031 0.828126 10.9375 1.02344 10.9766 1.29688Z" fill="#C9CED6"/>
</svg>
