<svg width="21" height="21" viewBox="0 0 21 21" fill="none" xmlns="http://www.w3.org/2000/svg">
<path d="M15.4922 1.04688C15.4531 0.812501 15.2969 0.656251 15.1016 0.578126C14.9063 0.500001 14.6719 0.500001 14.5156 0.617188L11 3.07813L7.44531 0.617188C7.28906 0.500001 7.05469 0.500001 6.85938 0.578126C6.66406 0.656251 6.50781 0.812501 6.46875 1.04688L5.72656 5.22656L1.50781 6.00781C1.27344 6.04688 1.11719 6.20313 1.03906 6.39844C0.960937 6.59375 0.960937 6.82813 1.07813 6.98438L3.53906 10.5L1.07813 14.0547C0.960937 14.2109 0.960937 14.4453 1.03906 14.6406C1.11719 14.8359 1.27344 14.9922 1.50781 15.0313L5.72656 15.7734L6.46875 19.9922C6.50781 20.2266 6.66406 20.3828 6.85938 20.4609C7.05469 20.5391 7.28906 20.5391 7.44531 20.4219L11 17.9609L14.5156 20.4219C14.6719 20.5391 14.9063 20.5391 15.1016 20.4609C15.2969 20.3828 15.4531 20.2266 15.4922 19.9922L16.2734 15.7734L20.4531 15.0313C20.6875 14.9922 20.8438 14.8359 20.9219 14.6406C21 14.4453 21 14.2109 20.8828 14.0547L18.4219 10.5L20.8828 6.98438C21 6.82813 21 6.59375 20.9219 6.39844C20.8438 6.20313 20.6875 6.04688 20.4531 6.00781L16.2734 5.22656L15.4922 1.04688ZM11.3516 4.32813L14.4375 2.21875L15.1016 5.89063C15.1406 6.16406 15.3359 6.35938 15.6094 6.39844L19.2813 7.0625L17.1719 10.1484C17.0156 10.3828 17.0156 10.6563 17.1719 10.8906L19.2813 13.9766L15.6094 14.6406C15.3359 14.6797 15.1406 14.875 15.1016 15.1484L14.4375 18.8203L11.3516 16.7109C11.1172 16.5547 10.8438 16.5547 10.6094 16.7109L7.52344 18.8203L6.85938 15.1484C6.82031 14.875 6.625 14.6797 6.35156 14.6406L2.67969 13.9766L4.78906 10.8516C4.94531 10.6563 4.94531 10.3828 4.78906 10.1484L2.67969 7.0625L6.35156 6.39844C6.625 6.35938 6.82031 6.16406 6.85938 5.89063L7.52344 2.21875L10.6484 4.32813C10.8438 4.48438 11.1172 4.48438 11.3516 4.32813ZM11 15.5C12.7578 15.5 14.3984 14.5625 15.2969 13C16.1953 11.4766 16.1953 9.5625 15.2969 8C14.3984 6.47656 12.7578 5.5 11 5.5C9.20313 5.5 7.5625 6.47656 6.66406 8C5.76563 9.5625 5.76563 11.4766 6.66406 13C7.5625 14.5625 9.20313 15.5 11 15.5ZM7.25 10.5C7.25 9.17188 7.95313 7.96094 9.125 7.25781C10.2578 6.59375 11.7031 6.59375 12.875 7.25781C14.0078 7.96094 14.75 9.17188 14.75 10.5C14.75 11.8672 14.0078 13.0781 12.875 13.7813C11.7031 14.4453 10.2578 14.4453 9.125 13.7813C7.95313 13.0781 7.25 11.8672 7.25 10.5Z" fill="#C9CED6"/>
</svg>
